<svg width="105" height="29" viewBox="0 0 105 29" fill="none" xmlns="http://www.w3.org/2000/svg">
<path d="M64.12 5.554C63.406 5.064 62.524 4.672 61.768 4.672C60.914 4.672 58.898 5.036 58.898 7.892V8.606H63.35V12.638H58.898V28.29H54.362V12.652H50.932V8.606H54.362V7.332C54.362 2.894 57.848 0.5 61.138 0.5C62.818 0.5 64.498 0.99 66.038 1.942L64.12 5.554Z" fill="#501E96"/>
<path fill-rule="evenodd" clip-rule="evenodd" d="M40.32 8.368C34.776 8.368 30.758 12.666 30.758 18.42C30.758 24.174 35.028 28.5 40.67 28.5C43.708 28.5 46.648 27.282 48.58 25L45.598 21.906C44.268 23.502 42.588 24.356 40.684 24.356C37.968 24.356 35.854 22.48 35.392 19.736H49.784V18.434C49.532 12.302 45.808 8.368 40.32 8.368ZM35.504 16.166C36.204 13.996 38.108 12.526 40.292 12.526C42.77 12.526 44.394 13.8 44.912 16.166H35.504Z" fill="#501E96"/>
<path d="M21.112 22.452L17.836 11.84C17.108 9.48799 16.282 8.89999 14.714 8.89999C13.146 8.89999 12.32 9.48799 11.592 11.84L8.316 22.452L4.9 8.60599H0L5.054 25.994C5.558 27.702 6.804 28.5 8.288 28.5C9.842 28.5 11.004 27.492 11.494 25.98L14.7 15.998L17.906 25.98C18.396 27.492 19.558 28.5 21.112 28.5C22.596 28.5 23.856 27.702 24.346 25.994L29.4 8.60599H24.5L21.112 22.452Z" fill="#501E96"/>
<path d="M98.406 17.916C100.338 16.754 103.222 12.722 103.684 8.592H98.98C98.924 11.742 96.194 14.738 94.682 15.69C93.17 14.738 90.454 11.756 90.384 8.592H85.68C86.142 12.708 89.026 16.754 90.958 17.916C89.026 19.008 85.61 23.698 85.316 28.276H89.894C90.23 24.748 93.38 20.884 94.696 20.156C96.012 20.884 99.162 24.748 99.498 28.276H104.076C103.754 23.698 100.338 19.008 98.406 17.916Z" fill="#501E96"/>
<path fill-rule="evenodd" clip-rule="evenodd" d="M64.33 18.434C64.33 12.792 68.726 8.368 74.326 8.368C79.926 8.368 84.322 12.792 84.322 18.434C84.322 24.076 79.926 28.5 74.326 28.5C68.712 28.5 64.33 24.076 64.33 18.434ZM68.782 18.434C68.782 21.864 71.12 24.342 74.326 24.342C77.518 24.342 79.828 21.85 79.828 18.434C79.828 15.004 77.518 12.526 74.326 12.526C71.106 12.526 68.782 15.018 68.782 18.434Z" fill="#501E96"/>
</svg>
